<svg width="262" height="23" viewBox="0 0 262 23" fill="none" xmlns="http://www.w3.org/2000/svg">
<path d="M1 17L9.45529 9L17.9106 17L26.3659 9L34.8211 17L43.2764 9L51.7317 17L60.187 9L68.6423 17L77.0976 9L85.5529 17L94.0081 9L102.463 17" stroke="#F6F7EB"/>
<path d="M159.537 17L167.992 9L176.447 17L184.902 9L193.358 17L201.813 9L210.268 17L218.724 9L227.179 17L235.634 9L244.089 17L252.545 9L261 17" stroke="#F6F7EB"/>
<path d="M136.341 6C136.341 8.70999 134.003 11 131 11C127.997 11 125.659 8.70999 125.659 6C125.659 3.29001 127.997 1 131 1C134.003 1 136.341 3.29001 136.341 6Z" stroke="#F6F7EB" stroke-width="2"/>
<path d="M135.178 19C135.178 21.179 133.31 22.95 131 22.95C128.69 22.95 126.822 21.179 126.822 19C126.822 16.821 128.69 15.05 131 15.05C133.31 15.05 135.178 16.821 135.178 19Z" fill="#0C1618" stroke="#F6F7EB" stroke-width="0.1"/>
</svg>
