<svg width="172" height="172" viewBox="0 0 172 172" fill="none" xmlns="http://www.w3.org/2000/svg">
<circle cx="86" cy="86" r="86" fill="white" fill-opacity="0.9"/>
<path d="M83.1372 110.539C78.3498 110.249 77.9875 109.802 75.3808 109.249L98.7242 79.0769L70.5383 84.0436L96.4892 53.4985C97.7309 54.3677 98.135 54.3904 101.704 57.8444L86.68 75.6002L109.651 70.2611C110.159 71.8856 110.058 71.4451 110.52 73.1169L83.1372 110.539Z" fill="#334F51"/>
<path d="M117.714 56.8161L131.753 46.4209C134.037 48.4894 135.341 50.1892 136.471 52.8776L127.283 59.0859C128.723 61.9567 129.743 63.9929 130.492 67.1001L141.516 65.3717C142.228 66.6734 143.176 69.6867 142.786 73.4713L131.983 74.713C132.342 78.4737 132.415 79.4605 132.001 83.5468L142.728 87.4271C142.77 89.9729 142.759 92.496 141.189 96.8327L123.689 90.168C125.079 75.4805 124.478 68.3763 117.714 56.8161Z" fill="#2F2F2F"/>
<path d="M128.649 16L108.533 18.1108L55.0175 93.9768L82.4584 88.0168L46.8225 134.828L44.215 129.737L39 151.094L57.9975 140.415L52.41 139.174L98.9726 78.9526L70.7867 83.9193L128.649 16Z" fill="#2F2F2F"/>
<path d="M72.3973 76.8887C72.3449 76.8479 72.2919 76.8191 72.2382 76.8021C72.1831 76.784 72.1208 76.7813 72.0514 76.7942C71.9821 76.8071 71.8983 76.8384 71.8002 76.8883C71.7017 76.9354 71.5825 77.006 71.4425 77.1001C71.2781 77.2098 71.1117 77.3092 70.9433 77.3985C70.7734 77.4866 70.6049 77.5522 70.4377 77.5954C70.269 77.6374 70.1038 77.6463 69.942 77.622C69.7788 77.5965 69.6216 77.525 69.4705 77.4075C69.3256 77.2949 69.2204 77.1612 69.1551 77.0065C69.0883 76.8506 69.059 76.6831 69.0672 76.5039C69.075 76.322 69.1185 76.1356 69.1976 75.9448C69.2751 75.7527 69.3865 75.5634 69.5315 75.3769C69.7233 75.1301 69.9355 74.9463 70.1681 74.8253C70.4004 74.7016 70.6365 74.6477 70.8765 74.6635C71.1162 74.6767 71.3424 74.766 71.5552 74.9314L70.9276 75.7386C70.8428 75.6727 70.7542 75.6323 70.6619 75.6174C70.5707 75.601 70.4797 75.6131 70.3887 75.6537C70.2978 75.6943 70.2116 75.767 70.13 75.8719C70.0509 75.9736 69.9998 76.0712 69.9767 76.1646C69.9536 76.2579 69.9545 76.3427 69.9793 76.419C70.0026 76.494 70.0451 76.5555 70.1068 76.6034C70.1577 76.643 70.2147 76.6651 70.2779 76.6697C70.3408 76.6716 70.4104 76.6601 70.4866 76.6352C70.564 76.6088 70.6483 76.5704 70.7394 76.52C70.8317 76.4681 70.9305 76.4063 71.0356 76.3347C71.2317 76.2002 71.4192 76.0911 71.598 76.0075C71.7765 75.9211 71.9476 75.8649 72.1114 75.8389C72.2748 75.81 72.432 75.8147 72.5829 75.8529C72.735 75.8895 72.882 75.963 73.0239 76.0733C73.175 76.1908 73.2863 76.3243 73.358 76.474C73.4296 76.6237 73.4637 76.7851 73.4603 76.9581C73.4554 77.1299 73.4144 77.3084 73.3374 77.4934C73.2603 77.6784 73.1487 77.865 73.0024 78.0531C72.8681 78.2258 72.7141 78.3794 72.5402 78.5139C72.3661 78.6456 72.1807 78.744 71.9843 78.809C71.7863 78.8727 71.5838 78.8897 71.3768 78.86C71.1696 78.8275 70.9665 78.7339 70.7676 78.5792L71.4005 77.7651C71.4992 77.8418 71.5927 77.8934 71.6809 77.92C71.7691 77.9465 71.8538 77.9505 71.935 77.932C72.0147 77.9123 72.0925 77.8726 72.1686 77.813C72.2431 77.7522 72.3175 77.674 72.3918 77.5784C72.4721 77.475 72.5222 77.3804 72.5421 77.2944C72.5604 77.2072 72.5562 77.1298 72.5297 77.0621C72.5016 76.9933 72.4575 76.9354 72.3973 76.8887ZM72.1492 72.1054L75.5168 74.7235L74.8856 75.5354L71.518 72.9172L72.1492 72.1054ZM72.9368 71.0923L73.5636 71.5796L71.3752 74.3944L70.7484 73.9071L72.9368 71.0923ZM76.9865 69.2199L77.1229 69.326C77.3804 69.5262 77.5836 69.7422 77.7323 69.9741C77.8807 70.2033 77.9764 70.4398 78.0195 70.6835C78.061 70.9261 78.0507 71.1667 77.9888 71.4055C77.9253 71.6432 77.8096 71.8699 77.6418 72.0858C77.4727 72.3032 77.2803 72.4727 77.0645 72.5944C76.8483 72.7133 76.617 72.7833 76.3705 72.8045C76.1237 72.8228 75.8703 72.7891 75.6104 72.7034C75.3502 72.6149 75.0913 72.4705 74.8338 72.2703L74.6974 72.1642C74.4399 71.964 74.2362 71.7487 74.0862 71.5184C73.9375 71.2864 73.8418 71.05 73.7991 70.809C73.756 70.5652 73.7662 70.3245 73.8298 70.0869C73.8929 69.8466 74.009 69.6177 74.178 69.4003C74.3459 69.1844 74.5379 69.017 74.754 68.8981C74.9698 68.7764 75.2012 68.7064 75.448 68.688C75.6933 68.6685 75.9467 68.7021 76.2081 68.7891C76.4695 68.8761 76.729 69.0197 76.9865 69.2199ZM76.4828 70.1494L76.3417 70.0397C76.1752 69.9102 76.0173 69.811 75.8681 69.742C75.7185 69.6702 75.579 69.6285 75.4495 69.6169C75.32 69.6053 75.2019 69.6235 75.0952 69.6717C74.9881 69.7171 74.8944 69.7915 74.8141 69.8948C74.7302 70.0027 74.6794 70.1142 74.6618 70.2291C74.6426 70.3429 74.6552 70.4603 74.6996 70.5814C74.744 70.7025 74.8194 70.8267 74.9258 70.9539C75.0319 71.0784 75.1682 71.2054 75.3347 71.3349L75.4758 71.4446C75.6408 71.5729 75.7975 71.6736 75.9458 71.7469C76.0938 71.8175 76.2328 71.8599 76.3626 71.8743C76.4937 71.8871 76.6127 71.8708 76.7198 71.8254C76.828 71.7784 76.9241 71.701 77.008 71.5931C77.0883 71.4897 77.1373 71.3806 77.1549 71.2657C77.1725 71.1507 77.1584 71.0321 77.1125 70.9098C77.0677 70.786 76.9929 70.661 76.8881 70.535C76.7829 70.4062 76.6478 70.2776 76.4828 70.1494ZM79.3635 69.1457L76.8227 66.0941L77.1338 65.694L77.5642 65.6797L80.1148 68.8094L79.7713 69.2512L79.3635 69.1457ZM76.1628 66.9429L79.6887 68.7751L79.8576 69.1402L79.4602 69.6513L75.537 67.7478L76.1628 66.9429ZM80.658 67.495L78.0257 64.5468L78.6497 63.7442L81.4616 67.077L81.066 67.5859L80.658 67.495ZM77.3586 65.4048L80.9734 67.1131L81.1523 67.4749L80.8089 67.9166L77.1298 66.2289L77.0493 65.8027L77.3586 65.4048ZM80.6359 62.6499L82.6574 65.539L81.9795 66.4109L79.5739 62.5553L80.0037 62.0026L80.6359 62.6499ZM83.8244 64.0379L80.5244 62.7933L79.734 62.3495L80.1691 61.7898L84.5042 63.1636L83.8244 64.0379ZM82.5434 63.0938L83.1702 63.5811L81.8269 65.3089L81.2001 64.8216L82.5434 63.0938ZM81.329 60.2979L82.3593 58.9726C82.5607 58.7136 82.7743 58.5184 83.0001 58.3872C83.2258 58.2559 83.4544 58.1974 83.6858 58.2115C83.9185 58.2242 84.1458 58.3168 84.3678 58.4894C84.5606 58.6393 84.6983 58.7946 84.7811 58.9555C84.8639 59.1163 84.9057 59.2836 84.9066 59.4575C84.9071 59.6286 84.8792 59.8061 84.8229 59.9899L84.7665 60.3728L83.9015 61.4853L83.2711 61.0026L83.9113 60.1792C83.9916 60.0759 84.0397 59.976 84.0554 59.8793C84.0711 59.7827 84.0583 59.6911 84.0168 59.6044C83.975 59.515 83.9063 59.4331 83.8107 59.3588C83.7135 59.2833 83.6165 59.2363 83.5195 59.2178C83.4226 59.1993 83.3286 59.2104 83.2377 59.251C83.1479 59.2901 83.0641 59.3597 82.9861 59.46L82.5869 59.9734L85.3277 62.1043L84.6966 62.9161L81.329 60.2979ZM86.1297 61.0727L84.0612 60.6594L84.7255 59.7954L86.7712 60.1761L86.8059 60.2031L86.1297 61.0727ZM88.4345 56.8195L89.059 57.305L87.1637 59.7428L86.5392 59.2573L88.4345 56.8195ZM86.0951 55.0267L87.4766 59.3404L87.0198 59.9278L86.592 59.5952L85.24 55.2674L85.6788 54.703L86.0951 55.0267ZM85.4756 54.9644L86.1024 55.4517L84.27 57.8085L83.6432 57.3212L85.4756 54.9644ZM86.4538 53.7061L88.3975 54.2227L87.4195 52.4641L88.0992 51.5898L89.4156 54.35L90.6252 55.2904L89.9833 56.1162L88.7736 55.1757L85.7723 54.5827L86.4538 53.7061ZM92.084 51.5669C92.0315 51.5262 91.9785 51.4973 91.9249 51.4804C91.8697 51.4622 91.8075 51.4596 91.7381 51.4724C91.6687 51.4853 91.585 51.5167 91.4868 51.5665C91.3883 51.6137 91.2691 51.6843 91.1292 51.7783C90.9648 51.888 90.7984 51.9875 90.63 52.0768C90.4601 52.1648 90.2915 52.2305 90.1243 52.2737C89.9556 52.3157 89.7904 52.3245 89.6287 52.3002C89.4654 52.2748 89.3083 52.2033 89.1571 52.0858C89.0122 51.9731 88.9071 51.8394 88.8418 51.6848C88.7749 51.5289 88.7456 51.3614 88.7538 51.1822C88.7617 51.0002 88.8051 50.8139 88.8842 50.623C88.9618 50.431 89.0731 50.2417 89.2182 50.0551C89.41 49.8084 89.6222 49.6245 89.8548 49.5036C90.087 49.3798 90.3232 49.3259 90.5631 49.3418C90.8028 49.3549 91.029 49.4442 91.2418 49.6097L90.6142 50.4169C90.5294 50.3509 90.4409 50.3105 90.3485 50.2956C90.2574 50.2792 90.1663 50.2913 90.0754 50.3319C89.9844 50.3725 89.8982 50.4453 89.8167 50.5501C89.7376 50.6519 89.6865 50.7495 89.6633 50.8428C89.6402 50.9362 89.6411 51.021 89.666 51.0972C89.6893 51.1722 89.7318 51.2337 89.7934 51.2817C89.8443 51.3212 89.9014 51.3433 89.9646 51.3479C90.0275 51.3498 90.097 51.3383 90.1732 51.3134C90.2507 51.2871 90.3349 51.2487 90.426 51.1983C90.5184 51.1464 90.6171 51.0846 90.7223 51.013C90.9184 50.8785 91.1059 50.7694 91.2847 50.6858C91.4632 50.5994 91.6343 50.5432 91.798 50.5171C91.9614 50.4883 92.1186 50.493 92.2695 50.5311C92.4217 50.5678 92.5686 50.6412 92.7105 50.7515C92.8616 50.869 92.973 51.0026 93.0446 51.1523C93.1163 51.302 93.1504 51.4633 93.147 51.6364C93.142 51.8082 93.1011 51.9866 93.024 52.1716C92.947 52.3566 92.8353 52.5432 92.6891 52.7313C92.5548 52.904 92.4007 53.0576 92.2269 53.1921C92.0527 53.3239 91.8674 53.4223 91.6709 53.4872C91.4729 53.551 91.2704 53.568 91.0635 53.5382C90.8562 53.5057 90.6531 53.4121 90.4542 53.2575L91.0872 52.4433C91.1859 52.5201 91.2793 52.5717 91.3675 52.5982C91.4558 52.6248 91.5405 52.6288 91.6217 52.6102C91.7013 52.5905 91.7792 52.5509 91.8552 52.4912C91.9297 52.4304 92.0041 52.3522 92.0784 52.2566C92.1588 52.1533 92.2089 52.0586 92.2287 51.9726C92.247 51.8854 92.2429 51.808 92.2163 51.7404C92.1882 51.6715 92.1441 51.6137 92.084 51.5669ZM95.2712 48.0258L95.8957 48.5113L94.0004 50.9491L93.3759 50.4636L95.2712 48.0258ZM92.9319 46.233L94.3133 50.5467L93.8566 51.1341L93.4287 50.8015L92.0768 46.4737L92.5155 45.9093L92.9319 46.233ZM92.3124 46.1707L92.9392 46.658L91.1068 49.0148L90.48 48.5275L92.3124 46.1707ZM97.3608 45.3382L97.9852 45.8237L96.5898 47.6185L95.9654 47.133L97.3608 45.3382ZM93.447 44.7112L96.8146 47.3294L96.1834 48.1412L92.8158 45.5231L93.447 44.7112ZM95.7747 44.4762L96.3784 44.9455L95.1628 46.509L94.5591 46.0397L95.7747 44.4762ZM94.623 43.1986L95.2498 43.6859L93.849 45.4877L93.2222 45.0003L94.623 43.1986ZM97.0632 40.06L100.431 42.6781L99.8014 43.4877L96.7798 43.0496L98.8753 44.6788L98.2442 45.4906L94.8766 42.8725L95.5077 42.0606L98.5293 42.4986L96.4338 40.8695L97.0632 40.06ZM98.1331 38.6838L101.501 41.302L100.871 42.1115L97.5037 39.4933L98.1331 38.6838ZM103.122 37.9276L103.747 38.4131L102.351 40.2079L101.727 39.7224L103.122 37.9276ZM99.2084 37.3007L102.576 39.9188L101.945 40.7307L98.5773 38.1125L99.2084 37.3007ZM101.536 37.0656L102.14 37.5349L100.924 39.0985L100.321 38.6291L101.536 37.0656ZM100.384 35.788L101.011 36.2753L99.6105 38.0771L98.9837 37.5898L100.384 35.788Z" fill="white" fill-opacity="0.8"/>
<path d="M75.3807 109.25L58.8663 130.606C66.2866 133.966 79.2214 135.875 88.2939 135.386L86.2652 123.332C99.0417 121.791 104.849 118.025 112.631 109.622L121.198 120.052C124.713 116.535 128.122 112.455 130.511 108.256C132.939 103.988 134.683 99.3028 135.726 94.7216L123.689 90.1679C125.59 76.7696 124.565 68.169 117.714 56.8158L128.4 48.9042C124.047 42.4425 118.06 36.0042 113.5 33.5073L96.4892 53.4982C102.54 57.7972 108.442 64.8976 110.52 73.3654C112.204 81.3376 111.028 88.1851 107.167 94.9704C103.442 101.81 97.1766 107.586 89.6303 109.956C84.3959 110.927 80.4939 110.514 75.3807 109.25Z" fill="#FB030F"/>
<path d="M81.1134 116.813C81.1121 116.725 81.0978 116.645 81.0707 116.576C81.0436 116.503 80.9944 116.436 80.9231 116.375C80.8519 116.313 80.7494 116.252 80.6156 116.192C80.4844 116.129 80.3115 116.064 80.097 115.997C79.8457 115.917 79.6034 115.827 79.3701 115.726C79.1367 115.623 78.9278 115.503 78.7434 115.365C78.559 115.224 78.4119 115.06 78.3023 114.871C78.1926 114.68 78.1358 114.457 78.1319 114.202C78.1282 113.957 78.1795 113.736 78.2859 113.539C78.3923 113.34 78.542 113.17 78.7352 113.029C78.931 112.885 79.1611 112.775 79.4256 112.698C79.69 112.618 79.9798 112.576 80.2949 112.571C80.7115 112.565 81.0797 112.632 81.3996 112.773C81.7221 112.912 81.9752 113.112 82.1589 113.375C82.3451 113.635 82.441 113.945 82.4465 114.304L81.0834 114.325C81.0812 114.182 81.0493 114.056 80.9878 113.948C80.9288 113.839 80.8403 113.754 80.7221 113.694C80.604 113.633 80.4564 113.604 80.2794 113.607C80.1075 113.609 79.9634 113.638 79.847 113.691C79.7306 113.745 79.6432 113.817 79.5846 113.906C79.526 113.993 79.4975 114.089 79.4991 114.193C79.5004 114.279 79.5251 114.357 79.573 114.426C79.6235 114.493 79.6935 114.556 79.7829 114.614C79.875 114.673 79.9852 114.729 80.1136 114.781C80.2446 114.834 80.3913 114.885 80.5535 114.935C80.857 115.026 81.1269 115.13 81.363 115.247C81.6018 115.36 81.803 115.491 81.9667 115.64C82.1331 115.786 82.2593 115.953 82.3455 116.142C82.4343 116.331 82.4806 116.545 82.4842 116.784C82.4881 117.04 82.4421 117.267 82.3462 117.466C82.2502 117.666 82.1109 117.836 81.9281 117.977C81.7453 118.115 81.5255 118.221 81.2688 118.295C81.0121 118.37 80.7249 118.409 80.4072 118.414C80.1156 118.418 79.8273 118.386 79.5424 118.318C79.26 118.246 79.0031 118.136 78.7716 117.986C78.5401 117.833 78.3535 117.637 78.2118 117.396C78.0727 117.154 78.0006 116.864 77.9954 116.529L79.3703 116.508C79.3728 116.674 79.3971 116.815 79.4431 116.928C79.4891 117.042 79.5556 117.134 79.6426 117.203C79.7296 117.269 79.8358 117.317 79.9612 117.346C80.0867 117.373 80.2301 117.385 80.3915 117.383C80.566 117.38 80.7062 117.353 80.8122 117.302C80.9182 117.248 80.9953 117.18 81.0435 117.096C81.0916 117.009 81.115 116.915 81.1134 116.813Z" fill="#FCD500"/>
<path d="M85.9016 113.272L85.3189 117.937L83.8687 118.194L84.9355 112.229L85.8548 112.067L85.9016 113.272ZM87.8152 117.496L85.6631 113.314L85.2778 112.169L86.2087 112.004L89.2692 117.238L87.8152 117.496ZM87.3918 115.416L87.5762 116.459L84.7029 116.967L84.5184 115.925L87.3918 115.416ZM88.0975 117.208L88.8538 117.312C88.7301 117.405 88.6314 117.49 88.5577 117.566C88.4865 117.643 88.4389 117.717 88.4148 117.79C88.3911 117.866 88.3868 117.946 88.4018 118.03C88.4136 118.097 88.4402 118.151 88.4817 118.191C88.5258 118.231 88.5902 118.243 88.6748 118.228C88.7414 118.216 88.7927 118.199 88.8284 118.177C88.8641 118.155 88.8973 118.133 88.9279 118.112L89.1923 118.732C89.135 118.781 89.0582 118.833 88.962 118.887C88.8663 118.944 88.7402 118.986 88.5837 119.014C88.3247 119.06 88.0917 119.028 87.8847 118.919C87.6781 118.813 87.551 118.625 87.5034 118.356C87.4811 118.23 87.4811 118.103 87.5034 117.975C87.5261 117.85 87.5829 117.722 87.6736 117.592C87.7674 117.464 87.9087 117.336 88.0975 117.208Z" fill="#FCD500"/>
<path d="M92.5239 116.16L91.3337 116.578L90.991 115.581L92.1739 115.165C92.4195 115.078 92.6064 114.946 92.7344 114.769C92.8648 114.59 92.9333 114.369 92.9396 114.104C92.9475 113.837 92.891 113.531 92.77 113.187L92.6883 112.955C92.5976 112.697 92.4923 112.48 92.3724 112.304C92.2541 112.125 92.123 111.987 91.9789 111.892C91.834 111.794 91.6761 111.737 91.5054 111.723C91.3371 111.707 91.1584 111.733 90.9693 111.8L89.7754 112.22L89.424 111.221L90.6179 110.801C90.9815 110.673 91.3364 110.619 91.6827 110.638C92.0305 110.653 92.3556 110.738 92.6579 110.891C92.9618 111.041 93.2293 111.252 93.4603 111.524C93.6929 111.792 93.8761 112.117 94.0101 112.498L94.0892 112.723C94.2223 113.101 94.2827 113.469 94.2705 113.827C94.2607 114.184 94.1855 114.515 94.0448 114.821C93.9041 115.128 93.7047 115.396 93.4466 115.628C93.1901 115.856 92.8825 116.033 92.5239 116.16ZM90.1868 110.953L92.0743 116.318L90.7809 116.773L88.8934 111.408L90.1868 110.953Z" fill="#FCD500"/>
<path d="M99.6595 111.713L100.155 112.645L97.478 114.068L96.9829 113.136L99.6595 111.713ZM95.2394 108.816L97.9092 113.838L96.6985 114.482L94.0287 109.46L95.2394 108.816ZM98.1997 109.8L98.6783 110.7L96.3467 111.939L95.8681 111.039L98.1997 109.8ZM97.4951 107.617L97.992 108.552L95.3052 109.98L94.8082 109.046L97.4951 107.617Z" fill="#FCD500"/>
<path d="M103.026 108.253L104.124 107.438C104.345 107.767 104.467 108.11 104.491 108.469C104.514 108.828 104.437 109.179 104.26 109.522C104.084 109.86 103.807 110.169 103.431 110.449C103.126 110.676 102.815 110.827 102.498 110.903C102.184 110.978 101.872 110.981 101.562 110.913C101.254 110.844 100.954 110.704 100.663 110.496C100.374 110.286 100.102 110.009 99.847 109.666L99.6629 109.419C99.4082 109.076 99.2241 108.734 99.1105 108.393C98.9975 108.049 98.9532 107.719 98.9775 107.402C99.0024 107.082 99.0949 106.783 99.2551 106.505C99.4152 106.227 99.6395 105.981 99.928 105.767C100.325 105.472 100.713 105.293 101.093 105.232C101.472 105.171 101.83 105.209 102.165 105.346C102.499 105.48 102.797 105.696 103.058 105.991L101.961 106.806C101.829 106.638 101.694 106.517 101.554 106.442C101.412 106.365 101.262 106.341 101.101 106.37C100.94 106.398 100.763 106.485 100.569 106.629C100.433 106.73 100.333 106.843 100.27 106.967C100.207 107.092 100.182 107.234 100.196 107.392C100.21 107.551 100.265 107.729 100.36 107.927C100.456 108.122 100.594 108.341 100.775 108.583L100.963 108.837C101.143 109.08 101.312 109.276 101.468 109.425C101.625 109.575 101.776 109.68 101.922 109.741C102.067 109.801 102.211 109.82 102.352 109.796C102.494 109.768 102.64 109.699 102.79 109.587C102.958 109.462 103.079 109.332 103.155 109.194C103.23 109.054 103.258 108.907 103.24 108.751C103.221 108.594 103.149 108.428 103.026 108.253Z" fill="#FCD500"/>
<path d="M103.452 102.844L107.528 106.811L106.571 107.794L102.496 103.827L103.452 102.844ZM105.82 100.412L106.349 104.001L106.46 105.909L105.384 105.21L105.064 103.748L104.64 101.624L105.82 100.412ZM108.765 105.54L105.904 104.806L106.085 103.494L109.895 104.379L108.765 105.54Z" fill="#FCD500"/>
<path d="M107.156 98.521L111.694 101.95L110.869 103.041L106.332 99.6118L107.156 98.521Z" fill="#FCD500"/>
<path d="M116.45 90.3521L117.435 90.7293L116.351 93.5601L115.366 93.1829L116.45 90.3521ZM111.214 91.0703L116.526 93.1041L116.035 94.3845L110.724 92.3508L111.214 91.0703ZM114.092 89.8677L115.044 90.2322L114.1 92.6983L113.148 92.3337L114.092 89.8677ZM112.128 88.6846L113.116 89.0631L112.028 91.9049L111.039 91.5263L112.128 88.6846Z" fill="#FCD500"/>
<path d="M117.697 85.2092L118.725 85.4445L118.084 88.2471L117.056 88.0118L117.697 85.2092ZM112.649 86.5025L118.193 87.7711L117.887 89.1076L112.343 87.8391L112.649 86.5025Z" fill="#FCD500"/>
<path d="M118.259 79.634L119.31 79.7227L119.055 82.7432L118.004 82.6545L118.259 79.634ZM113.428 81.7784L119.096 82.2567L118.98 83.6229L113.313 83.1446L113.428 81.7784ZM115.859 79.8235L116.875 79.9093L116.653 82.5406L115.637 82.4548L115.859 79.8235ZM113.643 79.2328L114.698 79.3218L114.442 82.354L113.387 82.2649L113.643 79.2328Z" fill="#FCD500"/>
<path d="M113.545 77.0373L119.22 76.6614L119.311 78.0295L113.636 78.4054L113.545 77.0373ZM113.321 73.6502L116.343 75.658L117.835 76.851L116.597 77.1836L115.295 76.4438L113.433 75.3379L113.321 73.6502ZM119.103 74.8919L116.643 76.5268L115.789 75.5146L118.996 73.2743L119.103 74.8919Z" fill="#FCD500"/>
<path d="M112.55 70.2768L118.096 69.0196L118.399 70.3568L112.853 71.6139L112.55 70.2768ZM112.171 68.6081L113.204 68.3742L114.255 73.0105L113.222 73.2445L112.171 68.6081Z" fill="#FCD500"/>
<path d="M111.91 67.898L111.081 65.8191C110.919 65.4127 110.838 65.0355 110.84 64.6873C110.841 64.3391 110.928 64.0367 111.1 63.7801C111.272 63.521 111.532 63.322 111.88 63.1831C112.182 63.0625 112.454 63.0088 112.695 63.022C112.935 63.0353 113.156 63.1001 113.357 63.2163C113.554 63.3311 113.739 63.4829 113.913 63.6716L114.315 63.9948L115.011 65.7399L114.031 66.1394L113.516 64.8478C113.451 64.6858 113.368 64.5631 113.268 64.4798C113.167 64.3966 113.053 64.3496 112.926 64.3388C112.794 64.3266 112.654 64.3504 112.504 64.4102C112.352 64.471 112.232 64.551 112.145 64.65C112.059 64.7491 112.008 64.8646 111.994 64.9966C111.978 65.1262 112.002 65.2696 112.064 65.4268L112.386 66.2323L116.685 64.517L117.193 65.7905L111.91 67.898ZM116.039 62.8988L114.169 64.9993L113.623 63.6525L115.441 61.5564L115.495 61.5346L116.039 62.8988Z" fill="#FCD500"/>
<path d="M109.251 61.9813L110.838 59.8199L108.179 60.1782L107.424 58.909L111.491 58.618L113.247 57.5741L113.96 58.7728L112.204 59.8168L110.007 63.2539L109.251 61.9813Z" fill="#FCD500"/>
<path d="M106.153 57.3798L110.528 53.746L111.404 54.8008L107.029 58.4346L106.153 57.3798ZM103.984 54.7684L107.61 54.6214L109.518 54.7121L108.71 55.7081L107.222 55.8726L105.065 56.0696L103.984 54.7684ZM109.395 52.3817L108.362 55.1488L107.077 54.8301L108.36 51.1347L109.395 52.3817Z" fill="#FCD500"/>
</svg>
