<svg width="19" height="16" viewBox="0 0 19 16" fill="none" xmlns="http://www.w3.org/2000/svg">
<path d="M16.7498 0H5.10711C4.19233 0 3.44387 0.654545 3.44387 1.45455V11.6364C3.44387 12.4364 4.19233 13.0909 5.10711 13.0909H16.7498C17.6646 13.0909 18.413 12.4364 18.413 11.6364V1.45455C18.413 0.654545 17.6646 0 16.7498 0ZM15.9182 11.6364H5.93873C5.48134 11.6364 5.10711 11.3091 5.10711 10.9091V2.18182C5.10711 1.78182 5.48134 1.45455 5.93873 1.45455H15.9182C16.3756 1.45455 16.7498 1.78182 16.7498 2.18182V10.9091C16.7498 11.3091 16.3756 11.6364 15.9182 11.6364ZM0.949006 2.90909C0.491615 2.90909 0.117386 3.23636 0.117386 3.63636V14.5455C0.117386 15.3455 0.865844 16 1.78063 16H14.2549C14.7123 16 15.0866 15.6727 15.0866 15.2727C15.0866 14.8727 14.7123 14.5455 14.2549 14.5455H2.61225C2.15486 14.5455 1.78063 14.2182 1.78063 13.8182V3.63636C1.78063 3.23636 1.4064 2.90909 0.949006 2.90909ZM13.4233 8.72727V7.27273C13.4233 6.47273 12.6749 5.81818 11.7601 5.81818H10.0968V4.36364H12.5917C13.0491 4.36364 13.4233 4.03636 13.4233 3.63636C13.4233 3.23636 13.0491 2.90909 12.5917 2.90909H9.26521C8.80782 2.90909 8.43359 3.23636 8.43359 3.63636V6.54545C8.43359 6.94545 8.80782 7.27273 9.26521 7.27273H11.7601V8.72727H9.26521C8.80782 8.72727 8.43359 9.05455 8.43359 9.45455C8.43359 9.85455 8.80782 10.1818 9.26521 10.1818H11.7601C12.6749 10.1818 13.4233 9.52727 13.4233 8.72727Z" fill="#0C1618"/>
</svg>
