<svg width="19" height="16" viewBox="0 0 19 16" fill="none" xmlns="http://www.w3.org/2000/svg">
<path d="M1.4186 2.90909C0.961204 2.90909 0.586975 3.23636 0.586975 3.63636V14.5455C0.586975 15.3455 1.33543 16 2.25022 16H14.7245C15.1819 16 15.5561 15.6727 15.5561 15.2727C15.5561 14.8727 15.1819 14.5455 14.7245 14.5455H3.08184C2.62445 14.5455 2.25022 14.2182 2.25022 13.8182V3.63636C2.25022 3.23636 1.87599 2.90909 1.4186 2.90909ZM12.2297 10.1818C12.6871 10.1818 13.0613 9.85455 13.0613 9.45455V3.63636C13.0613 3.23636 12.6871 2.90909 12.2297 2.90909H10.5664C10.109 2.90909 9.7348 3.23636 9.7348 3.63636C9.7348 4.03636 10.109 4.36364 10.5664 4.36364H11.398V9.45455C11.398 9.85455 11.7723 10.1818 12.2297 10.1818ZM17.2194 0H5.5767C4.66192 0 3.91346 0.654545 3.91346 1.45455V11.6364C3.91346 12.4364 4.66192 13.0909 5.5767 13.0909H17.2194C18.1342 13.0909 18.8826 12.4364 18.8826 11.6364V1.45455C18.8826 0.654545 18.1342 0 17.2194 0ZM16.3878 11.6364H6.40832C5.95093 11.6364 5.5767 11.3091 5.5767 10.9091V2.18182C5.5767 1.78182 5.95093 1.45455 6.40832 1.45455H16.3878C16.8452 1.45455 17.2194 1.78182 17.2194 2.18182V10.9091C17.2194 11.3091 16.8452 11.6364 16.3878 11.6364Z" fill="#0C1618"/>
</svg>
