<svg width="19" height="16" viewBox="0 0 19 16" fill="none" xmlns="http://www.w3.org/2000/svg">
<path d="M1.06641 2.90909C0.609016 2.90909 0.234787 3.23636 0.234787 3.63636V14.5455C0.234787 15.3455 0.983245 16 1.89803 16H14.3723C14.8297 16 15.204 15.6727 15.204 15.2727C15.204 14.8727 14.8297 14.5455 14.3723 14.5455H2.72965C2.27226 14.5455 1.89803 14.2182 1.89803 13.8182V3.63636C1.89803 3.23636 1.5238 2.90909 1.06641 2.90909ZM12.7091 10.1818C13.1665 10.1818 13.5407 9.85455 13.5407 9.45455V3.63636C13.5407 3.23636 13.1665 2.90909 12.7091 2.90909C12.2517 2.90909 11.8775 3.23636 11.8775 3.63636V5.81818H10.2142V3.63636C10.2142 3.23636 9.84 2.90909 9.38261 2.90909C8.92522 2.90909 8.55099 3.23636 8.55099 3.63636V6.54545C8.55099 6.94545 8.92522 7.27273 9.38261 7.27273H11.8775V9.45455C11.8775 9.85455 12.2517 10.1818 12.7091 10.1818ZM16.8672 0H5.22451C4.30973 0 3.56127 0.654545 3.56127 1.45455V11.6364C3.56127 12.4364 4.30973 13.0909 5.22451 13.0909H16.8672C17.782 13.0909 18.5304 12.4364 18.5304 11.6364V1.45455C18.5304 0.654545 17.782 0 16.8672 0ZM16.0356 11.6364H6.05613C5.59874 11.6364 5.22451 11.3091 5.22451 10.9091V2.18182C5.22451 1.78182 5.59874 1.45455 6.05613 1.45455H16.0356C16.493 1.45455 16.8672 1.78182 16.8672 2.18182V10.9091C16.8672 11.3091 16.493 11.6364 16.0356 11.6364Z" fill="#0C1618"/>
</svg>
