<svg width="123" height="141" viewBox="0 0 123 141" fill="none" xmlns="http://www.w3.org/2000/svg">
<g id="logo">
<path id="underLighting" d="M44.1373 94.5393C39.3499 94.2489 38.9876 93.802 36.3809 93.2495L59.7243 63.0769L31.5384 68.0436L57.4893 37.4985C58.731 38.3677 59.1351 38.3904 62.7043 41.8444L47.6801 59.6002L70.651 54.2611C71.1594 55.8856 71.0577 55.4451 71.5202 57.1169L44.1373 94.5393Z" fill="#334F51"/>
<path id="smalGear" d="M78.7141 40.8161L92.7526 30.4209C95.0373 32.4894 96.3414 34.1892 97.471 36.8776L88.2826 43.0859C89.7227 45.9567 90.7426 47.9929 91.4921 51.1001L102.516 49.3717C103.228 50.6734 104.176 53.6867 103.786 57.4713L92.9834 58.713C93.3424 62.4737 93.4151 63.4605 93.001 67.5468L103.728 71.4271C103.77 73.9729 103.759 76.496 102.189 80.8327L84.6889 74.168C86.0792 59.4805 85.4782 52.3763 78.7141 40.8161Z" fill="#2F2F2F"/>
<g id="lightingAndText">
<path id="lighting" d="M89.6485 0L69.5335 2.11084L16.0175 77.9768L43.4584 72.0168L7.82252 118.828L5.21501 113.737L0 135.094L18.9975 124.415L13.41 123.174L59.9726 62.9526L31.7867 67.9193L89.6485 0Z" fill="#2F2F2F"/>
<path id="text" d="M33.3974 60.8887C33.3449 60.8479 33.2919 60.8191 33.2383 60.8021C33.1831 60.784 33.1209 60.7813 33.0515 60.7942C32.9821 60.8071 32.8984 60.8384 32.8002 60.8883C32.7017 60.9354 32.5825 61.006 32.4426 61.1001C32.2781 61.2098 32.1118 61.3092 31.9434 61.3985C31.7735 61.4866 31.6049 61.5522 31.4377 61.5954C31.269 61.6374 31.1038 61.6463 30.9421 61.622C30.7788 61.5965 30.6217 61.525 30.4705 61.4075C30.3256 61.2949 30.2205 61.1612 30.1552 61.0065C30.0883 60.8506 30.059 60.6831 30.0672 60.5039C30.0751 60.322 30.1185 60.1356 30.1976 59.9448C30.2752 59.7527 30.3865 59.5634 30.5316 59.3769C30.7234 59.1301 30.9356 58.9463 31.1682 58.8253C31.4004 58.7016 31.6366 58.6477 31.8765 58.6635C32.1162 58.6767 32.3424 58.766 32.5552 58.9314L31.9276 59.7386C31.8428 59.6727 31.7543 59.6323 31.6619 59.6174C31.5708 59.601 31.4797 59.6131 31.3888 59.6537C31.2978 59.6943 31.2116 59.767 31.1301 59.8719C31.051 59.9736 30.9999 60.0712 30.9767 60.1646C30.9536 60.2579 30.9545 60.3427 30.9794 60.419C31.0027 60.494 31.0452 60.5555 31.1068 60.6034C31.1577 60.643 31.2148 60.6651 31.278 60.6697C31.3409 60.6716 31.4104 60.6601 31.4866 60.6352C31.5641 60.6088 31.6483 60.5704 31.7394 60.52C31.8318 60.4681 31.9305 60.4063 32.0357 60.3347C32.2318 60.2002 32.4193 60.0911 32.5981 60.0075C32.7765 59.9211 32.9477 59.8649 33.1114 59.8389C33.2748 59.81 33.432 59.8147 33.5829 59.8529C33.7351 59.8895 33.882 59.963 34.0239 60.0733C34.175 60.1908 34.2864 60.3243 34.358 60.474C34.4297 60.6237 34.4638 60.7851 34.4604 60.9581C34.4554 61.1299 34.4145 61.3084 34.3374 61.4934C34.2604 61.6784 34.1487 61.865 34.0025 62.0531C33.8682 62.2258 33.7141 62.3794 33.5403 62.5139C33.3661 62.6456 33.1808 62.744 32.9843 62.809C32.7863 62.8727 32.5838 62.8897 32.3769 62.86C32.1696 62.8275 31.9665 62.7339 31.7676 62.5792L32.4006 61.7651C32.4993 61.8418 32.5927 61.8934 32.6809 61.92C32.7692 61.9465 32.8539 61.9505 32.9351 61.932C33.0147 61.9123 33.0926 61.8726 33.1686 61.813C33.2431 61.7522 33.3175 61.674 33.3918 61.5784C33.4722 61.475 33.5223 61.3804 33.5421 61.2944C33.5604 61.2072 33.5563 61.1298 33.5297 61.0621C33.5016 60.9933 33.4575 60.9354 33.3974 60.8887ZM33.1492 56.1054L36.5168 58.7235L35.8857 59.5354L32.5181 56.9172L33.1492 56.1054ZM33.9368 55.0923L34.5636 55.5796L32.3752 58.3944L31.7484 57.9071L33.9368 55.0923ZM37.9865 53.2199L38.123 53.326C38.3805 53.5262 38.5836 53.7422 38.7323 53.9741C38.8807 54.2033 38.9765 54.4398 39.0195 54.6835C39.061 54.9261 39.0508 55.1667 38.9888 55.4055C38.9253 55.6432 38.8096 55.8699 38.6418 56.0858C38.4728 56.3032 38.2803 56.4727 38.0645 56.5944C37.8484 56.7133 37.617 56.7833 37.3706 56.8045C37.1237 56.8228 36.8704 56.7891 36.6105 56.7034C36.3502 56.6149 36.0914 56.4705 35.8339 56.2703L35.6974 56.1642C35.4399 55.964 35.2362 55.7487 35.0863 55.5184C34.9375 55.2864 34.8418 55.05 34.7991 54.809C34.7561 54.5652 34.7663 54.3245 34.8298 54.0869C34.893 53.8466 35.0091 53.6177 35.1781 53.4003C35.3459 53.1844 35.5379 53.017 35.7541 52.8981C35.9699 52.7764 36.2012 52.7064 36.4481 52.688C36.6934 52.6685 36.9467 52.7021 37.2081 52.7891C37.4696 52.8761 37.729 53.0197 37.9865 53.2199ZM37.4828 54.1494L37.3417 54.0397C37.1752 53.9102 37.0173 53.811 36.8681 53.742C36.7186 53.6702 36.579 53.6285 36.4495 53.6169C36.32 53.6053 36.2019 53.6235 36.0952 53.6717C35.9881 53.7171 35.8945 53.7915 35.8141 53.8948C35.7302 54.0027 35.6795 54.1142 35.6618 54.2291C35.6427 54.3429 35.6553 54.4603 35.6997 54.5814C35.7441 54.7025 35.8195 54.8267 35.9259 54.9539C36.0319 55.0784 36.1682 55.2054 36.3347 55.3349L36.4758 55.4446C36.6408 55.5729 36.7975 55.6736 36.9459 55.7469C37.0939 55.8175 37.2328 55.8599 37.3627 55.8743C37.4937 55.8871 37.6128 55.8708 37.7198 55.8254C37.8281 55.7784 37.9241 55.701 38.0081 55.5931C38.0884 55.4897 38.1374 55.3806 38.155 55.2657C38.1726 55.1507 38.1584 55.0321 38.1125 54.9098C38.0678 54.786 37.993 54.661 37.8881 54.535C37.7829 54.4062 37.6478 54.2776 37.4828 54.1494ZM40.3636 53.1457L37.8227 50.0941L38.1338 49.694L38.5642 49.6797L41.1148 52.8094L40.7714 53.2512L40.3636 53.1457ZM37.1628 50.9429L40.6888 52.7751L40.8577 53.1402L40.4603 53.6513L36.537 51.7478L37.1628 50.9429ZM41.658 51.495L39.0257 48.5468L39.6497 47.7442L42.4617 51.077L42.0661 51.5859L41.658 51.495ZM38.3586 49.4048L41.9735 51.1131L42.1524 51.4749L41.8089 51.9166L38.1298 50.2289L38.0493 49.8027L38.3586 49.4048ZM41.636 46.6499L43.6575 49.539L42.9795 50.4109L40.574 46.5553L41.0037 46.0026L41.636 46.6499ZM44.8245 48.0379L41.5245 46.7933L40.734 46.3495L41.1692 45.7898L45.5042 47.1636L44.8245 48.0379ZM43.5434 47.0938L44.1702 47.5811L42.827 49.3089L42.2002 48.8216L43.5434 47.0938ZM42.329 44.2979L43.3594 42.9726C43.5608 42.7136 43.7744 42.5184 44.0001 42.3872C44.2259 42.2559 44.4544 42.1974 44.6859 42.2115C44.9185 42.2242 45.1458 42.3168 45.3679 42.4894C45.5606 42.6393 45.6984 42.7946 45.7811 42.9555C45.8639 43.1163 45.9057 43.2836 45.9066 43.4575C45.9072 43.6286 45.8793 43.8061 45.823 43.9899L45.7665 44.3728L44.9016 45.4853L44.2712 45.0026L44.9113 44.1792C44.9917 44.0759 45.0397 43.976 45.0554 43.8793C45.0712 43.7827 45.0583 43.6911 45.0168 43.6044C44.975 43.515 44.9063 43.4331 44.8107 43.3588C44.7136 43.2833 44.6165 43.2363 44.5196 43.2178C44.4226 43.1993 44.3286 43.2104 44.2377 43.251C44.1479 43.2901 44.0641 43.3597 43.9862 43.46L43.587 43.9734L46.3278 46.1043L45.6966 46.9161L42.329 44.2979ZM47.1298 45.0727L45.0612 44.6594L45.7255 43.7954L47.7712 44.1761L47.8059 44.2031L47.1298 45.0727ZM49.4346 40.8195L50.059 41.305L48.1637 43.7428L47.5393 43.2573L49.4346 40.8195ZM47.0952 39.0267L48.4766 43.3404L48.0199 43.9278L47.592 43.5952L46.2401 39.2674L46.6789 38.703L47.0952 39.0267ZM46.4757 38.9644L47.1025 39.4517L45.2701 41.8085L44.6433 41.3212L46.4757 38.9644ZM47.4539 37.7061L49.3976 38.2227L48.4195 36.4641L49.0992 35.5898L50.4156 38.35L51.6253 39.2904L50.9833 40.1162L49.7737 39.1757L46.7724 38.5827L47.4539 37.7061ZM53.084 35.5669C53.0316 35.5262 52.9786 35.4973 52.9249 35.4804C52.8698 35.4622 52.8075 35.4596 52.7381 35.4724C52.6688 35.4853 52.585 35.5167 52.4869 35.5665C52.3884 35.6137 52.2692 35.6843 52.1292 35.7783C51.9648 35.888 51.7984 35.9875 51.63 36.0768C51.4601 36.1648 51.2916 36.2305 51.1244 36.2737C50.9557 36.3157 50.7904 36.3245 50.6287 36.3002C50.4655 36.2748 50.3083 36.2033 50.1572 36.0858C50.0122 35.9731 49.9071 35.8394 49.8418 35.6848C49.775 35.5289 49.7457 35.3614 49.7539 35.1822C49.7617 35.0002 49.8052 34.8139 49.8843 34.623C49.9618 34.431 50.0731 34.2417 50.2182 34.0551C50.41 33.8084 50.6222 33.6245 50.8548 33.5036C51.0871 33.3798 51.3232 33.3259 51.5632 33.3418C51.8028 33.3549 52.0291 33.4442 52.2419 33.6097L51.6143 34.4169C51.5295 34.3509 51.4409 34.3105 51.3486 34.2956C51.2574 34.2792 51.1664 34.2913 51.0754 34.3319C50.9845 34.3725 50.8983 34.4453 50.8167 34.5501C50.7376 34.6519 50.6865 34.7495 50.6634 34.8428C50.6403 34.9362 50.6412 35.021 50.666 35.0972C50.6893 35.1722 50.7318 35.2337 50.7935 35.2817C50.8444 35.3212 50.9014 35.3433 50.9646 35.3479C51.0275 35.3498 51.0971 35.3383 51.1733 35.3134C51.2507 35.2871 51.335 35.2487 51.4261 35.1983C51.5184 35.1464 51.6172 35.0846 51.7223 35.013C51.9184 34.8785 52.1059 34.7694 52.2847 34.6858C52.4632 34.5994 52.6343 34.5432 52.7981 34.5171C52.9615 34.4883 53.1187 34.493 53.2696 34.5311C53.4217 34.5678 53.5687 34.6412 53.7106 34.7515C53.8617 34.869 53.973 35.0026 54.0447 35.1523C54.1163 35.302 54.1504 35.4633 54.147 35.6364C54.1421 35.8082 54.1011 35.9866 54.0241 36.1716C53.947 36.3566 53.8354 36.5432 53.6891 36.7313C53.5548 36.904 53.4008 37.0576 53.2269 37.1921C53.0528 37.3239 52.8674 37.4223 52.671 37.4872C52.4729 37.551 52.2705 37.568 52.0635 37.5382C51.8563 37.5057 51.6532 37.4121 51.4543 37.2575L52.0872 36.4433C52.1859 36.5201 52.2794 36.5717 52.3676 36.5982C52.4558 36.6248 52.5405 36.6288 52.6217 36.6102C52.7014 36.5905 52.7792 36.5509 52.8552 36.4912C52.9298 36.4304 53.0042 36.3522 53.0785 36.2566C53.1588 36.1533 53.2089 36.0586 53.2288 35.9726C53.2471 35.8854 53.2429 35.808 53.2164 35.7404C53.1883 35.6715 53.1441 35.6137 53.084 35.5669ZM56.2713 32.0258L56.8958 32.5113L55.0005 34.9491L54.376 34.4636L56.2713 32.0258ZM53.9319 30.233L55.3134 34.5467L54.8566 35.1341L54.4287 34.8015L53.0768 30.4737L53.5156 29.9093L53.9319 30.233ZM53.3124 30.1707L53.9392 30.658L52.1068 33.0148L51.48 32.5275L53.3124 30.1707ZM58.3608 29.3382L58.9853 29.8237L57.5899 31.6185L56.9654 31.133L58.3608 29.3382ZM54.4471 28.7112L57.8147 31.3294L57.1835 32.1412L53.8159 29.5231L54.4471 28.7112ZM56.7747 28.4762L57.3784 28.9455L56.1628 30.509L55.5591 30.0397L56.7747 28.4762ZM55.6231 27.1986L56.2499 27.6859L54.8491 29.4877L54.2223 29.0003L55.6231 27.1986ZM58.0632 24.06L61.4308 26.6781L60.8015 27.4877L57.7799 27.0496L59.8754 28.6788L59.2442 29.4906L55.8766 26.8725L56.5078 26.0606L59.5294 26.4986L57.4339 24.8695L58.0632 24.06ZM59.1332 22.6838L62.5008 25.302L61.8714 26.1115L58.5038 23.4933L59.1332 22.6838ZM64.1222 21.9276L64.7467 22.4131L63.3513 24.2079L62.7268 23.7224L64.1222 21.9276ZM60.2085 21.3007L63.5761 23.9188L62.9449 24.7307L59.5773 22.1125L60.2085 21.3007ZM62.5361 21.0656L63.1398 21.5349L61.9242 23.0985L61.3206 22.6291L62.5361 21.0656ZM61.3845 19.788L62.0113 20.2753L60.6105 22.0771L59.9837 21.5898L61.3845 19.788Z" fill="white" fill-opacity="0.8"/>
</g>
<g id="largeGearAndText">
<path id="largeGear" d="M36.3807 93.2496L19.8663 114.606C27.2866 117.966 40.2214 119.875 49.2939 119.386L47.2652 107.332C60.0417 105.791 65.8489 102.025 73.6309 93.6216L82.1984 104.052C85.7129 100.535 89.1222 96.4547 91.5108 92.2563C93.9388 87.9885 95.6827 83.3028 96.7259 78.7216L84.689 74.1679C86.5896 60.7696 85.565 52.169 78.7142 40.8158L89.3998 32.9042C85.0473 26.4425 79.06 20.0042 74.5001 17.5073L57.4892 37.4982C63.5399 41.7972 69.4417 48.8976 71.5199 57.3654C73.204 65.3376 72.0278 72.1851 68.1674 78.9704C64.4415 85.8097 58.1766 91.5855 50.6303 93.9564C45.3959 94.9274 41.4939 94.5144 36.3807 93.2496Z" fill="#FB030F"/>
<g id="curveText">
<path id="S" d="M42.1136 100.813C42.1123 100.725 42.098 100.645 42.0709 100.576C42.0438 100.503 41.9946 100.436 41.9233 100.375C41.8521 100.313 41.7496 100.252 41.6158 100.192C41.4846 100.129 41.3117 100.064 41.0972 99.9965C40.8459 99.917 40.6036 99.8269 40.3703 99.7263C40.1369 99.6231 39.928 99.5025 39.7436 99.3647C39.5592 99.2243 39.4121 99.0598 39.3025 98.8714C39.1928 98.6803 39.136 98.4572 39.1321 98.202C39.1284 97.9572 39.1797 97.7364 39.2861 97.5394C39.3925 97.3399 39.5422 97.1696 39.7354 97.0286C39.9312 96.885 40.1613 96.7747 40.4258 96.6978C40.6902 96.6182 40.98 96.576 41.2951 96.5712C41.7117 96.5649 42.0799 96.6322 42.3998 96.7732C42.7223 96.9115 42.9754 97.1121 43.1591 97.375C43.3453 97.6352 43.4412 97.945 43.4467 98.3043L42.0836 98.3251C42.0814 98.1818 42.0495 98.056 41.988 97.9476C41.929 97.8391 41.8405 97.7545 41.7223 97.6938C41.6042 97.6331 41.4566 97.604 41.2796 97.6067C41.1077 97.6094 40.9636 97.6376 40.8472 97.6915C40.7308 97.7453 40.6434 97.817 40.5848 97.9064C40.5262 97.9932 40.4977 98.0887 40.4993 98.1929C40.5006 98.2788 40.5253 98.3566 40.5732 98.4262C40.6237 98.4931 40.6937 98.5559 40.7831 98.6144C40.8752 98.6729 40.9854 98.7285 41.1138 98.7813C41.2448 98.834 41.3915 98.8851 41.5537 98.9348C41.8572 99.0265 42.1271 99.1305 42.3632 99.2467C42.602 99.3603 42.8032 99.4913 42.9669 99.6399C43.1333 99.7858 43.2595 99.9532 43.3457 100.142C43.4345 100.331 43.4808 100.545 43.4844 100.784C43.4883 101.04 43.4423 101.267 43.3464 101.466C43.2504 101.666 43.1111 101.836 42.9283 101.977C42.7455 102.115 42.5257 102.221 42.269 102.295C42.0123 102.37 41.7251 102.409 41.4074 102.414C41.1158 102.418 40.8275 102.386 40.5426 102.318C40.2602 102.246 40.0033 102.136 39.7718 101.986C39.5403 101.833 39.3537 101.637 39.212 101.396C39.0729 101.154 39.0008 100.864 38.9956 100.529L40.3705 100.508C40.373 100.674 40.3973 100.815 40.4433 100.928C40.4893 101.042 40.5558 101.134 40.6428 101.203C40.7298 101.269 40.836 101.317 40.9614 101.346C41.0869 101.373 41.2303 101.385 41.3917 101.383C41.5662 101.38 41.7064 101.353 41.8124 101.302C41.9184 101.248 41.9955 101.18 42.0437 101.096C42.0918 101.009 42.1152 100.915 42.1136 100.813Z" fill="#FCD500"/>
<path id="&#196;&#132;" d="M46.9016 97.2722L46.3189 101.937L44.8688 102.194L45.9356 96.2293L46.8549 96.0666L46.9016 97.2722ZM48.8153 101.496L46.6631 97.3144L46.2779 96.1687L47.2088 96.004L50.2693 101.238L48.8153 101.496ZM48.3918 99.4165L48.5763 100.459L45.703 100.967L45.5185 99.9249L48.3918 99.4165ZM49.0976 101.208L49.8539 101.312C49.7302 101.405 49.6315 101.49 49.5578 101.566C49.4866 101.643 49.439 101.717 49.4149 101.79C49.3912 101.866 49.3869 101.946 49.4019 102.03C49.4137 102.097 49.4403 102.151 49.4818 102.191C49.5259 102.231 49.5902 102.243 49.6749 102.228C49.7415 102.216 49.7927 102.199 49.8285 102.177C49.8642 102.155 49.8974 102.133 49.928 102.112L50.1924 102.732C50.1351 102.781 50.0583 102.833 49.9621 102.887C49.8663 102.944 49.7402 102.986 49.5838 103.014C49.3248 103.06 49.0918 103.028 48.8848 102.919C48.6782 102.813 48.5511 102.625 48.5034 102.356C48.4812 102.23 48.4812 102.103 48.5035 101.975C48.5262 101.85 48.5829 101.722 48.6737 101.592C48.7675 101.464 48.9088 101.336 49.0976 101.208Z" fill="#FCD500"/>
<path id="D" d="M53.5239 100.16L52.3337 100.578L51.991 99.5809L53.1739 99.1648C53.4195 99.0783 53.6064 98.9464 53.7344 98.7688C53.8649 98.5904 53.9333 98.3689 53.9396 98.1045C53.9475 97.8366 53.891 97.5308 53.77 97.1869L53.6883 96.9547C53.5976 96.6968 53.4923 96.4798 53.3724 96.3039C53.2541 96.1247 53.123 95.9872 52.9789 95.8916C52.834 95.7935 52.6761 95.7373 52.5054 95.7228C52.3371 95.7074 52.1584 95.733 51.9693 95.7996L50.7754 96.2196L50.4241 95.221L51.618 94.801C51.9815 94.6731 52.3364 94.6186 52.6827 94.6376C53.0305 94.6533 53.3556 94.7377 53.6579 94.8908C53.9618 95.0406 54.2293 95.2516 54.4603 95.5237C54.6929 95.7924 54.8761 96.1172 55.0101 96.498L55.0892 96.7228C55.2223 97.1011 55.2827 97.4691 55.2705 97.8267C55.2608 98.1835 55.1855 98.515 55.0448 98.8213C54.9041 99.1275 54.7047 99.3964 54.4466 99.628C54.1901 99.8563 53.8825 100.033 53.5239 100.16ZM51.1868 94.9527L53.0743 100.318L51.7809 100.773L49.8934 95.4077L51.1868 94.9527Z" fill="#FCD500"/>
<path id="E" d="M60.6596 95.7134L61.1546 96.6447L58.4781 98.0676L57.983 97.1363L60.6596 95.7134ZM56.2395 92.8164L58.9092 97.8384L57.6986 98.482L55.0288 93.46L56.2395 92.8164ZM59.1998 93.7997L59.6784 94.6999L57.3468 95.9395L56.8682 95.0392L59.1998 93.7997ZM58.4952 91.6172L58.9921 92.5519L56.3053 93.9803L55.8083 93.0456L58.4952 91.6172Z" fill="#FCD500"/>
<path id="C" d="M64.0261 92.2534L65.1236 91.4381C65.345 91.7667 65.4674 92.1105 65.4908 92.4694C65.5142 92.8284 65.4373 93.1791 65.2602 93.5215C65.0837 93.8603 64.8073 94.1695 64.431 94.449C64.1258 94.6758 63.815 94.8272 63.4985 94.9034C63.1841 94.978 62.8718 94.9813 62.5617 94.9132C62.2537 94.8436 61.954 94.7044 61.6628 94.4958C61.3736 94.2857 61.1017 94.0092 60.847 93.6663L60.663 93.4186C60.4083 93.0758 60.2242 92.7341 60.1106 92.3934C59.9976 92.0492 59.9533 91.7188 59.9776 91.4022C60.0025 91.082 60.095 90.7829 60.2551 90.505C60.4152 90.2271 60.6395 89.981 60.928 89.7667C61.3252 89.4716 61.7135 89.2934 62.093 89.2321C62.4724 89.1708 62.8298 89.2086 63.1651 89.3456C63.4989 89.4804 63.7966 89.6956 64.0583 89.991L62.9608 90.8064C62.8293 90.6381 62.6936 90.5166 62.5539 90.442C62.4126 90.3653 62.2616 90.3412 62.1011 90.3696C61.9405 90.3981 61.763 90.4845 61.5686 90.629C61.4328 90.7299 61.3333 90.8427 61.2702 90.9674C61.2072 91.0922 61.1826 91.2337 61.1964 91.3921C61.2103 91.5505 61.2649 91.7289 61.3604 91.9272C61.4564 92.1219 61.5945 92.3405 61.7746 92.583L61.9633 92.837C62.1434 93.0795 62.3118 93.2756 62.4684 93.4253C62.6251 93.5749 62.7761 93.68 62.9217 93.7406C63.0673 93.8012 63.2107 93.8195 63.3519 93.7957C63.4937 93.7682 63.6399 93.6985 63.7904 93.5867C63.9576 93.4625 64.0793 93.3315 64.1554 93.1939C64.23 93.0541 64.2583 92.9066 64.2403 92.7513C64.2207 92.5939 64.1493 92.4279 64.0261 92.2534Z" fill="#FCD500"/>
<path id="K" d="M64.452 86.8442L68.5275 90.8112L67.5712 91.7937L63.4956 87.8267L64.452 86.8442ZM66.8197 84.4117L67.3487 88.0012L67.4601 89.9085L66.3844 89.2103L66.0636 87.7478L65.6399 85.6238L66.8197 84.4117ZM69.7645 89.5404L66.9038 88.8055L67.085 87.4937L70.8952 88.3788L69.7645 89.5404Z" fill="#FCD500"/>
<path id="I" d="M68.1564 82.521L72.6939 85.9501L71.8696 87.0409L67.3321 83.6118L68.1564 82.521Z" fill="#FCD500"/>
<path id="E_2" d="M77.45 74.3521L78.435 74.7293L77.3511 77.5601L76.3661 77.1829L77.45 74.3521ZM72.2142 75.0703L77.5257 77.1041L77.0354 78.3845L71.7239 76.3508L72.2142 75.0703ZM75.0924 73.8677L76.0445 74.2322L75.1003 76.6983L74.1481 76.3337L75.0924 73.8677ZM73.1277 72.6846L74.1163 73.0631L73.0282 75.9049L72.0396 75.5263L73.1277 72.6846Z" fill="#FCD500"/>
<path id="L" d="M78.6973 69.2092L79.7254 69.4445L79.0842 72.2471L78.0561 72.0118L78.6973 69.2092ZM73.6489 70.5025L79.1931 71.7711L78.8873 73.1076L73.3431 71.8391L73.6489 70.5025Z" fill="#FCD500"/>
<path id="E_3" d="M79.2587 63.634L80.3096 63.7227L80.0547 66.7432L79.0038 66.6545L79.2587 63.634ZM74.4284 65.7784L80.0958 66.2567L79.9805 67.6229L74.3131 67.1446L74.4284 65.7784ZM76.8592 63.8235L77.8752 63.9093L77.6531 66.5406L76.6372 66.4548L76.8592 63.8235ZM74.6433 63.2328L75.6981 63.3218L75.4422 66.354L74.3874 66.2649L74.6433 63.2328Z" fill="#FCD500"/>
<path id="K_2" d="M74.5452 61.0373L80.2202 60.6614L80.3108 62.0295L74.6358 62.4054L74.5452 61.0373ZM74.3208 57.6502L77.3429 59.658L78.8352 60.851L77.5967 61.1836L76.2949 60.4438L74.4326 59.3379L74.3208 57.6502ZM80.103 58.8919L77.6432 60.5268L76.7893 59.5146L79.9959 57.2743L80.103 58.8919Z" fill="#FCD500"/>
<path id="T" d="M73.5496 54.2768L79.0965 53.0196L79.3995 54.3568L73.8527 55.6139L73.5496 54.2768ZM73.1715 52.6081L74.2039 52.3742L75.2547 57.0105L74.2222 57.2445L73.1715 52.6081Z" fill="#FCD500"/>
<path id="R" d="M72.9104 51.898L72.081 49.8191C71.9189 49.4127 71.8385 49.0355 71.8397 48.6873C71.841 48.3391 71.9279 48.0367 72.1002 47.7801C72.2717 47.521 72.5315 47.322 72.8798 47.1831C73.1822 47.0625 73.4537 47.0088 73.6946 47.022C73.9354 47.0353 74.1561 47.1001 74.3567 47.2163C74.5539 47.3311 74.7392 47.4829 74.9126 47.6716L75.3149 47.9948L76.0111 49.7399L75.0308 50.1394L74.5155 48.8478C74.4508 48.6858 74.3683 48.5631 74.2677 48.4798C74.1672 48.3966 74.0532 48.3496 73.9255 48.3388C73.7945 48.3266 73.654 48.3504 73.504 48.4102C73.3516 48.471 73.2321 48.551 73.1454 48.65C73.0588 48.7491 73.0082 48.8646 72.9935 48.9966C72.9779 49.1262 73.0015 49.2696 73.0642 49.4268L73.3856 50.2323L77.6849 48.517L78.193 49.7905L72.9104 51.898ZM77.0394 46.8988L75.1689 48.9993L74.6232 47.6525L76.4407 45.5564L76.4951 45.5346L77.0394 46.8988Z" fill="#FCD500"/>
<path id="Y" d="M70.2509 45.9813L71.838 43.8199L69.179 44.1782L68.4245 42.909L72.4914 42.618L74.2475 41.5741L74.9601 42.7728L73.204 43.8168L71.0074 47.2539L70.2509 45.9813Z" fill="#FCD500"/>
<path id="K_3" d="M67.1531 41.3798L71.5284 37.746L72.4044 38.8008L68.0291 42.4346L67.1531 41.3798ZM64.9843 38.7684L68.6096 38.6214L70.518 38.7121L69.7101 39.7081L68.2219 39.8726L66.0649 40.0696L64.9843 38.7684ZM70.3953 36.3817L69.3624 39.1488L68.0771 38.8301L69.3596 35.1347L70.3953 36.3817Z" fill="#FCD500"/>
</g>
</g>
</g>
</svg>
