<svg width="14" height="10" viewBox="0 0 14 10" fill="none" xmlns="http://www.w3.org/2000/svg">
<path d="M11.8282 0H3.2149C2.5363 0 1.98444 0.560625 1.98444 1.25V4.375H3.2149V2.5L7.1524 5.5C7.25894 5.58104 7.38845 5.62484 7.52155 5.62484C7.65464 5.62484 7.78415 5.58104 7.89069 5.5L11.8282 2.5V8.125H6.90631V9.375H11.8282C12.5068 9.375 13.0587 8.81438 13.0587 8.125V1.25C13.0587 0.560625 12.5068 0 11.8282 0ZM7.52155 4.21875L3.62465 1.25H11.4184L7.52155 4.21875Z" fill="#F6F7EB"/>
<path d="M0.753906 5H5.06055V6.25H0.753906V5ZM1.98438 6.875H5.67578V8.125H1.98438V6.875ZM3.83008 8.75H6.29102V10H3.83008V8.75Z" fill="#F6F7EB"/>
</svg>
