<svg width="30" height="30" viewBox="0 0 30 30" fill="none" xmlns="http://www.w3.org/2000/svg">
<path d="M0 14.5505C0 6.18959 6.54938 0 15 0C23.4506 0 30 6.18959 30 14.5505C30 22.9114 23.4506 29.101 15 29.101C13.4812 29.101 12.0263 28.9004 10.6575 28.5254C10.3921 28.4515 10.1093 28.4714 9.85687 28.5816L6.87937 29.8979C6.69955 29.9772 6.50299 30.0112 6.30697 29.9968C6.11095 29.9823 5.92148 29.92 5.75521 29.8152C5.58893 29.7104 5.45095 29.5663 5.35337 29.3957C5.2558 29.2251 5.20163 29.0331 5.19562 28.8366L5.11312 26.1684C5.10743 26.006 5.06875 25.8465 4.99945 25.6995C4.93014 25.5525 4.83166 25.4211 4.71 25.3134C1.7925 22.7033 0 18.9232 0 14.5505ZM10.3988 11.8148L5.9925 18.805C5.57063 19.4763 6.39375 20.232 7.02562 19.7538L11.76 16.1612C11.9157 16.0429 12.1057 15.9786 12.3012 15.9779C12.4968 15.9772 12.6872 16.0402 12.8437 16.1574L16.3481 18.7863C16.5968 18.9727 16.8813 19.1057 17.1839 19.1767C17.4865 19.2477 17.8005 19.2553 18.1061 19.1989C18.4118 19.1425 18.7024 19.0234 18.9597 18.8492C19.2171 18.6749 19.4355 18.4492 19.6013 18.1863L24.0075 11.196C24.4312 10.5247 23.6063 9.76909 22.9744 10.2472L18.24 13.8399C18.0843 13.9581 17.8943 14.0225 17.6988 14.0232C17.5032 14.0238 17.3128 13.9608 17.1562 13.8436L13.6519 11.2129C13.4032 11.0264 13.1187 10.8935 12.8161 10.8225C12.5135 10.7515 12.1995 10.7439 11.8939 10.8003C11.5882 10.8567 11.2976 10.9757 11.0403 11.15C10.7829 11.3243 10.5645 11.55 10.3988 11.8129V11.8148Z" fill="#0C1618"/>
</svg>
