<svg width="10" height="10" viewBox="0 0 10 10" fill="none" xmlns="http://www.w3.org/2000/svg">
<path d="M0 4.85017C0 2.0632 2.18313 0 5 0C7.81687 0 10 2.0632 10 4.85017C10 7.63714 7.81687 9.70034 5 9.70034C4.49375 9.70034 4.00875 9.63346 3.5525 9.50846C3.46403 9.48384 3.36978 9.49046 3.28562 9.52721L2.29312 9.96597C2.23318 9.99242 2.16766 10.0037 2.10232 9.99892C2.03698 9.99411 1.97383 9.97333 1.9184 9.93839C1.86298 9.90346 1.81698 9.85544 1.78446 9.79857C1.75193 9.74169 1.73388 9.6777 1.73187 9.61221L1.70437 8.72281C1.70248 8.66867 1.68958 8.61549 1.66648 8.56649C1.64338 8.51749 1.61055 8.47371 1.57 8.4378C0.5975 7.56777 0 6.30772 0 4.85017ZM3.46625 3.93826L1.9975 6.26835C1.85688 6.4921 2.13125 6.74399 2.34187 6.58461L3.92 5.38706C3.9719 5.34764 4.03524 5.32619 4.10042 5.32597C4.16559 5.32574 4.22907 5.34675 4.28125 5.38581L5.44937 6.26209C5.53226 6.32425 5.62711 6.36856 5.72797 6.39223C5.82883 6.4159 5.93349 6.41842 6.03537 6.39963C6.13725 6.38084 6.23413 6.34115 6.31991 6.28305C6.40568 6.22496 6.47849 6.14972 6.53375 6.06209L8.0025 3.73201C8.14375 3.50825 7.86875 3.25636 7.65813 3.41574L6.08 4.61329C6.02809 4.65271 5.96476 4.67416 5.89958 4.67438C5.83441 4.67461 5.77093 4.6536 5.71875 4.61454L4.55063 3.73763C4.46774 3.67548 4.37289 3.63117 4.27203 3.60749C4.17117 3.58382 4.06651 3.5813 3.96463 3.60009C3.86275 3.61888 3.76587 3.65858 3.68009 3.71667C3.59432 3.77477 3.52151 3.85 3.46625 3.93764V3.93826Z" fill="#F6F7EB"/>
</svg>
