<svg width="19" height="16" viewBox="0 0 19 16" fill="none" xmlns="http://www.w3.org/2000/svg">
<path d="M1.30119 2.90909C0.843803 2.90909 0.469574 3.23636 0.469574 3.63636V14.5455C0.469574 15.3455 1.21803 16 2.13281 16H14.6071C15.0645 16 15.4387 15.6727 15.4387 15.2727C15.4387 14.8727 15.0645 14.5455 14.6071 14.5455H2.96444C2.50704 14.5455 2.13281 14.2182 2.13281 13.8182V3.63636C2.13281 3.23636 1.75859 2.90909 1.30119 2.90909ZM17.102 0H5.4593C4.54451 0 3.79606 0.654545 3.79606 1.45455V11.6364C3.79606 12.4364 4.54451 13.0909 5.4593 13.0909H17.102C18.0168 13.0909 18.7652 12.4364 18.7652 11.6364V1.45455C18.7652 0.654545 18.0168 0 17.102 0ZM16.2704 11.6364H6.29092C5.83353 11.6364 5.4593 11.3091 5.4593 10.9091V2.18182C5.4593 1.78182 5.83353 1.45455 6.29092 1.45455H16.2704C16.7278 1.45455 17.102 1.78182 17.102 2.18182V10.9091C17.102 11.3091 16.7278 11.6364 16.2704 11.6364ZM12.9439 8.72727H10.449V7.27273H12.1123C13.027 7.27273 13.7755 6.61818 13.7755 5.81818V4.36364C13.7755 3.56364 13.027 2.90909 12.1123 2.90909H9.6174C9.16001 2.90909 8.78578 3.23636 8.78578 3.63636C8.78578 4.03636 9.16001 4.36364 9.6174 4.36364H12.1123V5.81818H10.449C9.53424 5.81818 8.78578 6.47273 8.78578 7.27273V9.45455C8.78578 9.85455 9.16001 10.1818 9.6174 10.1818H12.9439C13.4013 10.1818 13.7755 9.85455 13.7755 9.45455C13.7755 9.05455 13.4013 8.72727 12.9439 8.72727Z" fill="#0C1618"/>
</svg>
