<svg width="19" height="16" viewBox="0 0 19 16" fill="none" xmlns="http://www.w3.org/2000/svg">
<path d="M16.9846 0H5.3419C4.42711 0 3.67865 0.654545 3.67865 1.45455V11.6364C3.67865 12.4364 4.42711 13.0909 5.3419 13.0909H16.9846C17.8994 13.0909 18.6478 12.4364 18.6478 11.6364V1.45455C18.6478 0.654545 17.8994 0 16.9846 0ZM16.153 11.6364H6.17352C5.71612 11.6364 5.3419 11.3091 5.3419 10.9091V2.18182C5.3419 1.78182 5.71612 1.45455 6.17352 1.45455H16.153C16.6104 1.45455 16.9846 1.78182 16.9846 2.18182V10.9091C16.9846 11.3091 16.6104 11.6364 16.153 11.6364ZM1.18379 2.90909C0.726402 2.90909 0.352173 3.23636 0.352173 3.63636V14.5455C0.352173 15.3455 1.10063 16 2.01541 16H14.4897C14.9471 16 15.3213 15.6727 15.3213 15.2727C15.3213 14.8727 14.9471 14.5455 14.4897 14.5455H2.84703C2.38964 14.5455 2.01541 14.2182 2.01541 13.8182V3.63636C2.01541 3.23636 1.64118 2.90909 1.18379 2.90909ZM13.6581 8.72727V7.63636C13.6581 7.03273 13.1009 6.54545 12.4107 6.54545C13.1009 6.54545 13.6581 6.05818 13.6581 5.45455V4.36364C13.6581 3.56364 12.9096 2.90909 11.9949 2.90909H9.5C9.04261 2.90909 8.66838 3.23636 8.66838 3.63636C8.66838 4.03636 9.04261 4.36364 9.5 4.36364H11.9949V5.81818H11.1632C10.7058 5.81818 10.3316 6.14545 10.3316 6.54545C10.3316 6.94545 10.7058 7.27273 11.1632 7.27273H11.9949V8.72727H9.5C9.04261 8.72727 8.66838 9.05455 8.66838 9.45455C8.66838 9.85455 9.04261 10.1818 9.5 10.1818H11.9949C12.9096 10.1818 13.6581 9.52727 13.6581 8.72727Z" fill="#0C1618"/>
</svg>
