<svg width="97" height="97" viewBox="0 0 97 97" fill="none" xmlns="http://www.w3.org/2000/svg">
<path d="M97 32.3334L64.6667 3.9135e-05L97 4.57764e-05L97 32.3334Z" fill="#F6F7EB"/>
<path d="M64.6667 32.3334L32.3334 3.9135e-05L64.6667 4.57764e-05L64.6667 32.3334Z" fill="#F6F7EB"/>
<path d="M32.3333 32.3334L1.42708e-05 3.9135e-05L32.3333 4.57764e-05L32.3333 32.3334Z" fill="#F6F7EB"/>
<path d="M97 64.6666L64.6667 32.3333L97 32.3333L97 64.6666Z" fill="#F6F7EB"/>
<path d="M64.6667 64.6666L32.3333 32.3333L64.6667 32.3333L64.6667 64.6666Z" fill="#F6F7EB"/>
<path d="M32.3333 64.6666L1.42708e-05 32.3333L32.3333 32.3333L32.3333 64.6666Z" fill="#F6F7EB"/>
<path d="M97 97L64.6667 64.6667L97 64.6667L97 97Z" fill="#F6F7EB"/>
<path d="M64.6667 97L32.3333 64.6667L64.6667 64.6667L64.6667 97Z" fill="#F6F7EB"/>
<path d="M32.3333 97L1.42708e-05 64.6667L32.3333 64.6667L32.3333 97Z" fill="#F6F7EB"/>
</svg>
