<svg width="97" height="97" viewBox="0 0 97 97" fill="none" xmlns="http://www.w3.org/2000/svg">
<path d="M32.3333 0L1.23978e-05 32.3333L1.54813e-05 0L32.3333 0Z" fill="#F6F7EB"/>
<path d="M32.3333 32.3334L-1.81198e-05 64.6667L-1.50363e-05 32.3334L32.3333 32.3334Z" fill="#F6F7EB"/>
<path d="M32.3333 64.6666L-1.81198e-05 97L-1.50363e-05 64.6666H32.3333Z" fill="#F6F7EB"/>
<path d="M64.6667 0L32.3333 32.3333L32.3333 0L64.6667 0Z" fill="#F6F7EB"/>
<path d="M64.6667 32.3334L32.3333 64.6667L32.3333 32.3334L64.6667 32.3334Z" fill="#F6F7EB"/>
<path d="M64.6667 64.6666L32.3333 97L32.3333 64.6666H64.6667Z" fill="#F6F7EB"/>
<path d="M97 0L64.6667 32.3333L64.6667 0L97 0Z" fill="#F6F7EB"/>
<path d="M97 32.3334L64.6667 64.6667L64.6667 32.3334L97 32.3334Z" fill="#F6F7EB"/>
<path d="M97 64.6666L64.6667 97L64.6667 64.6666H97Z" fill="#F6F7EB"/>
</svg>
